<mxfile host="app.diagrams.net" modified="2024-01-07T08:34:11.022Z" agent="Mozilla/5.0 (Windows NT 10.0; Win64; x64) AppleWebKit/537.36 (KHTML, like Gecko) Chrome/119.0.0.0 Safari/537.36 OPR/105.0.0.0" etag="DzIKhcxZJy1xZoWHi1qb" version="22.1.17" type="github">
  <diagram name="Page-1" id="9f46799a-70d6-7492-0946-bef42562c5a5">
    <mxGraphModel dx="1121" dy="2054" grid="1" gridSize="10" guides="1" tooltips="1" connect="1" arrows="1" fold="1" page="1" pageScale="1" pageWidth="1000" pageHeight="700" background="none" math="0" shadow="0">
      <root>
        <mxCell id="0" />
        <mxCell id="1" parent="0" />
        <mxCell id="78961159f06e98e8-17" value="User" style="swimlane;html=1;fontStyle=1;align=center;verticalAlign=top;childLayout=stackLayout;horizontal=1;startSize=26;horizontalStack=0;resizeParent=1;resizeLast=0;collapsible=1;marginBottom=0;swimlaneFillColor=#ffffff;rounded=1;shadow=0;comic=0;labelBackgroundColor=none;strokeWidth=1;fillColor=none;fontFamily=Verdana;fontSize=12;arcSize=19;" parent="1" vertex="1">
          <mxGeometry x="40" y="-370" width="210" height="124" as="geometry">
            <mxRectangle x="70" y="83" width="70" height="30" as="alternateBounds" />
          </mxGeometry>
        </mxCell>
        <mxCell id="78961159f06e98e8-21" value="_ID_username: int" style="text;html=1;strokeColor=none;fillColor=none;align=left;verticalAlign=top;spacingLeft=4;spacingRight=4;whiteSpace=wrap;overflow=hidden;rotatable=0;points=[[0,0.5],[1,0.5]];portConstraint=eastwest;labelBackgroundColor=none;rounded=1;" parent="78961159f06e98e8-17" vertex="1">
          <mxGeometry y="26" width="210" height="30" as="geometry" />
        </mxCell>
        <mxCell id="78961159f06e98e8-23" value="password: char[255]" style="text;html=1;strokeColor=none;fillColor=none;align=left;verticalAlign=top;spacingLeft=4;spacingRight=4;whiteSpace=wrap;overflow=hidden;rotatable=0;points=[[0,0.5],[1,0.5]];portConstraint=eastwest;labelBackgroundColor=none;rounded=1;" parent="78961159f06e98e8-17" vertex="1">
          <mxGeometry y="56" width="210" height="30" as="geometry" />
        </mxCell>
        <mxCell id="78961159f06e98e8-19" value="" style="line;html=1;strokeWidth=1;fillColor=none;align=left;verticalAlign=middle;spacingTop=-1;spacingLeft=3;spacingRight=3;rotatable=0;labelPosition=right;points=[];portConstraint=eastwest;labelBackgroundColor=none;rounded=1;" parent="78961159f06e98e8-17" vertex="1">
          <mxGeometry y="86" width="210" height="8" as="geometry" />
        </mxCell>
        <mxCell id="78961159f06e98e8-20" value="+ Login(User): User" style="text;html=1;strokeColor=none;fillColor=none;align=left;verticalAlign=top;spacingLeft=4;spacingRight=4;whiteSpace=wrap;overflow=hidden;rotatable=0;points=[[0,0.5],[1,0.5]];portConstraint=eastwest;labelBackgroundColor=none;rounded=1;" parent="78961159f06e98e8-17" vertex="1">
          <mxGeometry y="94" width="210" height="30" as="geometry" />
        </mxCell>
        <mxCell id="PtKEEvkuK-J1Ukp3apgT-69" style="edgeStyle=orthogonalEdgeStyle;rounded=1;orthogonalLoop=1;jettySize=auto;html=1;entryX=0.5;entryY=0;entryDx=0;entryDy=0;" edge="1" parent="1" source="78961159f06e98e8-30" target="PtKEEvkuK-J1Ukp3apgT-20">
          <mxGeometry relative="1" as="geometry" />
        </mxCell>
        <mxCell id="78961159f06e98e8-30" value="BaseUser" style="swimlane;html=1;fontStyle=1;align=center;verticalAlign=top;childLayout=stackLayout;horizontal=1;startSize=26;horizontalStack=0;resizeParent=1;resizeLast=0;collapsible=1;marginBottom=0;swimlaneFillColor=#ffffff;rounded=1;shadow=0;comic=0;labelBackgroundColor=none;strokeWidth=1;fillColor=none;fontFamily=Verdana;fontSize=12;" parent="1" vertex="1">
          <mxGeometry x="320" y="-370" width="230" height="350" as="geometry" />
        </mxCell>
        <mxCell id="78961159f06e98e8-31" value="profile: Profile&amp;nbsp;" style="text;html=1;strokeColor=none;fillColor=none;align=left;verticalAlign=top;spacingLeft=4;spacingRight=4;whiteSpace=wrap;overflow=hidden;rotatable=0;points=[[0,0.5],[1,0.5]];portConstraint=eastwest;labelBackgroundColor=none;rounded=1;" parent="78961159f06e98e8-30" vertex="1">
          <mxGeometry y="26" width="230" height="30" as="geometry" />
        </mxCell>
        <mxCell id="78961159f06e98e8-32" value="personalInfo: PrivateInfo" style="text;html=1;strokeColor=none;fillColor=none;align=left;verticalAlign=top;spacingLeft=4;spacingRight=4;whiteSpace=wrap;overflow=hidden;rotatable=0;points=[[0,0.5],[1,0.5]];portConstraint=eastwest;labelBackgroundColor=none;rounded=1;" parent="78961159f06e98e8-30" vertex="1">
          <mxGeometry y="56" width="230" height="30" as="geometry" />
        </mxCell>
        <mxCell id="78961159f06e98e8-42" value="posts: GeneralPost" style="text;html=1;strokeColor=none;fillColor=none;align=left;verticalAlign=top;spacingLeft=4;spacingRight=4;whiteSpace=wrap;overflow=hidden;rotatable=0;points=[[0,0.5],[1,0.5]];portConstraint=eastwest;labelBackgroundColor=none;rounded=1;" parent="78961159f06e98e8-30" vertex="1">
          <mxGeometry y="86" width="230" height="30" as="geometry" />
        </mxCell>
        <mxCell id="78961159f06e98e8-38" value="" style="line;html=1;strokeWidth=1;fillColor=none;align=left;verticalAlign=middle;spacingTop=-1;spacingLeft=3;spacingRight=3;rotatable=0;labelPosition=right;points=[];portConstraint=eastwest;labelBackgroundColor=none;rounded=1;" parent="78961159f06e98e8-30" vertex="1">
          <mxGeometry y="116" width="230" height="8" as="geometry" />
        </mxCell>
        <mxCell id="PtKEEvkuK-J1Ukp3apgT-60" value="+ CreateProfile(): Profile&amp;nbsp;" style="text;html=1;strokeColor=none;fillColor=none;align=left;verticalAlign=top;spacingLeft=4;spacingRight=4;whiteSpace=wrap;overflow=hidden;rotatable=0;points=[[0,0.5],[1,0.5]];portConstraint=eastwest;labelBackgroundColor=none;rounded=1;fontStyle=0" vertex="1" parent="78961159f06e98e8-30">
          <mxGeometry y="124" width="230" height="30" as="geometry" />
        </mxCell>
        <mxCell id="PtKEEvkuK-J1Ukp3apgT-14" value="+ CreatePost(GeneralPost): GeneralPost" style="text;html=1;strokeColor=none;fillColor=none;align=left;verticalAlign=top;spacingLeft=4;spacingRight=4;whiteSpace=wrap;overflow=hidden;rotatable=0;points=[[0,0.5],[1,0.5]];portConstraint=eastwest;labelBackgroundColor=none;rounded=1;" vertex="1" parent="78961159f06e98e8-30">
          <mxGeometry y="154" width="230" height="30" as="geometry" />
        </mxCell>
        <mxCell id="PtKEEvkuK-J1Ukp3apgT-27" value="+ Like(GeneralPost): void&amp;nbsp;" style="text;html=1;strokeColor=none;fillColor=none;align=left;verticalAlign=top;spacingLeft=4;spacingRight=4;whiteSpace=wrap;overflow=hidden;rotatable=0;points=[[0,0.5],[1,0.5]];portConstraint=eastwest;labelBackgroundColor=none;rounded=1;" vertex="1" parent="78961159f06e98e8-30">
          <mxGeometry y="184" width="230" height="30" as="geometry" />
        </mxCell>
        <mxCell id="PtKEEvkuK-J1Ukp3apgT-30" value="+ Repost(GeneralPost): void&amp;nbsp;" style="text;html=1;strokeColor=none;fillColor=none;align=left;verticalAlign=top;spacingLeft=4;spacingRight=4;whiteSpace=wrap;overflow=hidden;rotatable=0;points=[[0,0.5],[1,0.5]];portConstraint=eastwest;labelBackgroundColor=none;rounded=1;" vertex="1" parent="78961159f06e98e8-30">
          <mxGeometry y="214" width="230" height="30" as="geometry" />
        </mxCell>
        <mxCell id="PtKEEvkuK-J1Ukp3apgT-28" value="+ Archieve(GeneralPost): void&amp;nbsp;" style="text;html=1;strokeColor=none;fillColor=none;align=left;verticalAlign=top;spacingLeft=4;spacingRight=4;whiteSpace=wrap;overflow=hidden;rotatable=0;points=[[0,0.5],[1,0.5]];portConstraint=eastwest;labelBackgroundColor=none;rounded=1;fontStyle=0" vertex="1" parent="78961159f06e98e8-30">
          <mxGeometry y="244" width="230" height="30" as="geometry" />
        </mxCell>
        <mxCell id="PtKEEvkuK-J1Ukp3apgT-41" value="+ Quote(GeneralPost): void&amp;nbsp;" style="text;html=1;strokeColor=none;fillColor=none;align=left;verticalAlign=top;spacingLeft=4;spacingRight=4;whiteSpace=wrap;overflow=hidden;rotatable=0;points=[[0,0.5],[1,0.5]];portConstraint=eastwest;labelBackgroundColor=none;rounded=1;fontStyle=0" vertex="1" parent="78961159f06e98e8-30">
          <mxGeometry y="274" width="230" height="30" as="geometry" />
        </mxCell>
        <mxCell id="PtKEEvkuK-J1Ukp3apgT-83" value="+ DeleteOwnPost(GeneralPost): void&amp;nbsp;" style="text;html=1;strokeColor=none;fillColor=none;align=left;verticalAlign=top;spacingLeft=4;spacingRight=4;whiteSpace=wrap;overflow=hidden;rotatable=0;points=[[0,0.5],[1,0.5]];portConstraint=eastwest;labelBackgroundColor=none;rounded=1;fontStyle=0" vertex="1" parent="78961159f06e98e8-30">
          <mxGeometry y="304" width="230" height="30" as="geometry" />
        </mxCell>
        <mxCell id="78961159f06e98e8-43" value="GeneralPost" style="swimlane;html=1;fontStyle=1;align=center;verticalAlign=top;childLayout=stackLayout;horizontal=1;startSize=26;horizontalStack=0;resizeParent=1;resizeLast=0;collapsible=1;marginBottom=0;swimlaneFillColor=#ffffff;rounded=1;shadow=0;comic=0;labelBackgroundColor=none;strokeWidth=1;fillColor=#f8cecc;fontFamily=Verdana;fontSize=12;strokeColor=#b85450;" parent="1" vertex="1">
          <mxGeometry x="630" y="10" width="150" height="420" as="geometry" />
        </mxCell>
        <mxCell id="PtKEEvkuK-J1Ukp3apgT-18" value="author: User" style="text;html=1;strokeColor=none;fillColor=none;align=left;verticalAlign=top;spacingLeft=4;spacingRight=4;whiteSpace=wrap;overflow=hidden;rotatable=0;points=[[0,0.5],[1,0.5]];portConstraint=eastwest;labelBackgroundColor=none;rounded=1;" vertex="1" parent="78961159f06e98e8-43">
          <mxGeometry y="26" width="150" height="30" as="geometry" />
        </mxCell>
        <mxCell id="78961159f06e98e8-44" value="dateTime: DateTime&amp;nbsp;" style="text;html=1;strokeColor=none;fillColor=none;align=left;verticalAlign=top;spacingLeft=4;spacingRight=4;whiteSpace=wrap;overflow=hidden;rotatable=0;points=[[0,0.5],[1,0.5]];portConstraint=eastwest;labelBackgroundColor=none;rounded=1;" parent="78961159f06e98e8-43" vertex="1">
          <mxGeometry y="56" width="150" height="30" as="geometry" />
        </mxCell>
        <mxCell id="78961159f06e98e8-45" value="likes: int&amp;nbsp;" style="text;html=1;strokeColor=none;fillColor=none;align=left;verticalAlign=top;spacingLeft=4;spacingRight=4;whiteSpace=wrap;overflow=hidden;rotatable=0;points=[[0,0.5],[1,0.5]];portConstraint=eastwest;labelBackgroundColor=none;rounded=1;" parent="78961159f06e98e8-43" vertex="1">
          <mxGeometry y="86" width="150" height="30" as="geometry" />
        </mxCell>
        <mxCell id="78961159f06e98e8-49" value="reposts: int&amp;nbsp;" style="text;html=1;strokeColor=none;fillColor=none;align=left;verticalAlign=top;spacingLeft=4;spacingRight=4;whiteSpace=wrap;overflow=hidden;rotatable=0;points=[[0,0.5],[1,0.5]];portConstraint=eastwest;labelBackgroundColor=none;rounded=1;" parent="78961159f06e98e8-43" vertex="1">
          <mxGeometry y="116" width="150" height="30" as="geometry" />
        </mxCell>
        <mxCell id="78961159f06e98e8-50" value="archieves: int&amp;nbsp;" style="text;html=1;strokeColor=none;fillColor=none;align=left;verticalAlign=top;spacingLeft=4;spacingRight=4;whiteSpace=wrap;overflow=hidden;rotatable=0;points=[[0,0.5],[1,0.5]];portConstraint=eastwest;labelBackgroundColor=none;rounded=1;" parent="78961159f06e98e8-43" vertex="1">
          <mxGeometry y="146" width="150" height="30" as="geometry" />
        </mxCell>
        <mxCell id="PtKEEvkuK-J1Ukp3apgT-43" value="quotes: int&amp;nbsp;" style="text;html=1;strokeColor=none;fillColor=none;align=left;verticalAlign=top;spacingLeft=4;spacingRight=4;whiteSpace=wrap;overflow=hidden;rotatable=0;points=[[0,0.5],[1,0.5]];portConstraint=eastwest;labelBackgroundColor=none;rounded=1;" vertex="1" parent="78961159f06e98e8-43">
          <mxGeometry y="176" width="150" height="30" as="geometry" />
        </mxCell>
        <mxCell id="PtKEEvkuK-J1Ukp3apgT-19" value="views: int&amp;nbsp;" style="text;html=1;strokeColor=none;fillColor=none;align=left;verticalAlign=top;spacingLeft=4;spacingRight=4;whiteSpace=wrap;overflow=hidden;rotatable=0;points=[[0,0.5],[1,0.5]];portConstraint=eastwest;labelBackgroundColor=none;rounded=1;" vertex="1" parent="78961159f06e98e8-43">
          <mxGeometry y="206" width="150" height="30" as="geometry" />
        </mxCell>
        <mxCell id="78961159f06e98e8-51" value="" style="line;html=1;strokeWidth=1;fillColor=none;align=left;verticalAlign=middle;spacingTop=-1;spacingLeft=3;spacingRight=3;rotatable=0;labelPosition=right;points=[];portConstraint=eastwest;labelBackgroundColor=none;rounded=1;" parent="78961159f06e98e8-43" vertex="1">
          <mxGeometry y="236" width="150" height="9" as="geometry" />
        </mxCell>
        <mxCell id="78961159f06e98e8-52" value="+ EditPost(): void" style="text;html=1;strokeColor=#b85450;fillColor=#f8cecc;align=left;verticalAlign=top;spacingLeft=4;spacingRight=4;whiteSpace=wrap;overflow=hidden;rotatable=0;points=[[0,0.5],[1,0.5]];portConstraint=eastwest;labelBackgroundColor=none;rounded=1;" parent="78961159f06e98e8-43" vertex="1">
          <mxGeometry y="245" width="150" height="30" as="geometry" />
        </mxCell>
        <mxCell id="78961159f06e98e8-53" value="+ DeletePost() void" style="text;html=1;align=left;verticalAlign=top;spacingLeft=4;spacingRight=4;whiteSpace=wrap;overflow=hidden;rotatable=0;points=[[0,0.5],[1,0.5]];portConstraint=eastwest;labelBackgroundColor=none;rounded=1;" parent="78961159f06e98e8-43" vertex="1">
          <mxGeometry y="275" width="150" height="30" as="geometry" />
        </mxCell>
        <mxCell id="PtKEEvkuK-J1Ukp3apgT-151" value="+ InsertMedia() void" style="text;html=1;strokeColor=none;fillColor=none;align=left;verticalAlign=top;spacingLeft=4;spacingRight=4;whiteSpace=wrap;overflow=hidden;rotatable=0;points=[[0,0.5],[1,0.5]];portConstraint=eastwest;labelBackgroundColor=none;rounded=1;" vertex="1" parent="78961159f06e98e8-43">
          <mxGeometry y="305" width="150" height="30" as="geometry" />
        </mxCell>
        <mxCell id="PtKEEvkuK-J1Ukp3apgT-152" value="+ EmbedLink() void" style="text;html=1;strokeColor=none;fillColor=none;align=left;verticalAlign=top;spacingLeft=4;spacingRight=4;whiteSpace=wrap;overflow=hidden;rotatable=0;points=[[0,0.5],[1,0.5]];portConstraint=eastwest;labelBackgroundColor=none;rounded=1;" vertex="1" parent="78961159f06e98e8-43">
          <mxGeometry y="335" width="150" height="30" as="geometry" />
        </mxCell>
        <mxCell id="PtKEEvkuK-J1Ukp3apgT-161" value="+ Display() hmtl" style="text;html=1;strokeColor=#82b366;fillColor=#d5e8d4;align=left;verticalAlign=top;spacingLeft=4;spacingRight=4;whiteSpace=wrap;overflow=hidden;rotatable=0;points=[[0,0.5],[1,0.5]];portConstraint=eastwest;labelBackgroundColor=none;rounded=1;" vertex="1" parent="78961159f06e98e8-43">
          <mxGeometry y="365" width="150" height="25" as="geometry" />
        </mxCell>
        <mxCell id="PtKEEvkuK-J1Ukp3apgT-164" value="+ Reply() Comment" style="text;html=1;strokeColor=none;fillColor=none;align=left;verticalAlign=top;spacingLeft=4;spacingRight=4;whiteSpace=wrap;overflow=hidden;rotatable=0;points=[[0,0.5],[1,0.5]];portConstraint=eastwest;labelBackgroundColor=none;rounded=1;" vertex="1" parent="78961159f06e98e8-43">
          <mxGeometry y="390" width="150" height="20" as="geometry" />
        </mxCell>
        <mxCell id="PtKEEvkuK-J1Ukp3apgT-2" value="&lt;b&gt;Note&lt;/b&gt;:&amp;nbsp;&lt;br&gt;&amp;nbsp; - &lt;b&gt;Continuous lines&lt;/b&gt; specify the relationships between the classes.&lt;div&gt;&amp;nbsp; - &lt;b&gt;Dashed lines&lt;/b&gt; specify the relationships between the classes and interfaces.&lt;br&gt;&amp;nbsp; - &lt;b&gt;Normal arrow &lt;/b&gt;means the classes which pointed, are subclasses of pointing classes.&amp;nbsp;&lt;/div&gt;&lt;div&gt;&amp;nbsp; - &lt;b&gt;Diamond blocks&lt;/b&gt; show the methods that one object uses to interact with other objects &lt;i&gt;without making any change&lt;/i&gt;.&lt;/div&gt;&lt;div&gt;&amp;nbsp; - &lt;b&gt;Point or circle arrow&amp;nbsp;&lt;/b&gt;show methods that one object us uses to interact with other objects by reference &lt;i&gt;(means making change)&lt;/i&gt;&lt;/div&gt;" style="rounded=1;html=1;fillColor=#B8EAFF;align=left;labelBackgroundColor=none;whiteSpace=wrap;spacing=3;spacingLeft=5;glass=0;shadow=1;" vertex="1" parent="1">
          <mxGeometry x="70" y="-650" width="280" height="220" as="geometry" />
        </mxCell>
        <mxCell id="PtKEEvkuK-J1Ukp3apgT-7" value="&lt;b&gt;Note&lt;/b&gt;:&amp;nbsp;&lt;br&gt;&amp;nbsp; - Red blocks are Abstract Classes, Greens are interfaces, Yellows are enum.&lt;br&gt;&amp;nbsp; - Every first letter of class name type will be an Uppercase and lowercase for primitive type.&lt;br&gt;&amp;nbsp; - If an attribute is defined with &lt;b&gt;_ID_&amp;nbsp;&lt;/b&gt;or &lt;b&gt;_KEY_ &lt;/b&gt;then that is unique in all class instances and can not be matched.&amp;nbsp;&lt;br&gt;&amp;nbsp; - If an attribute is defined with &lt;b&gt;_CONSTANT_ &lt;/b&gt;then that can not be changed or delete in any case." style="rounded=1;html=1;fillColor=#E0FFC2;align=left;labelBackgroundColor=none;whiteSpace=wrap;spacing=3;spacingLeft=5;glass=0;shadow=1;" vertex="1" parent="1">
          <mxGeometry x="390" y="-650" width="270" height="210" as="geometry" />
        </mxCell>
        <mxCell id="PtKEEvkuK-J1Ukp3apgT-92" style="edgeStyle=orthogonalEdgeStyle;rounded=1;orthogonalLoop=1;jettySize=auto;html=1;entryX=0.5;entryY=0;entryDx=0;entryDy=0;" edge="1" parent="1" source="PtKEEvkuK-J1Ukp3apgT-20" target="PtKEEvkuK-J1Ukp3apgT-86">
          <mxGeometry relative="1" as="geometry" />
        </mxCell>
        <mxCell id="PtKEEvkuK-J1Ukp3apgT-20" value="SingleUser" style="swimlane;html=1;fontStyle=1;align=center;verticalAlign=top;childLayout=stackLayout;horizontal=1;startSize=26;horizontalStack=0;resizeParent=1;resizeLast=0;collapsible=1;marginBottom=0;swimlaneFillColor=#ffffff;rounded=1;shadow=0;comic=0;labelBackgroundColor=none;strokeWidth=1;fillColor=none;fontFamily=Verdana;fontSize=12;" vertex="1" parent="1">
          <mxGeometry x="320" y="10" width="230" height="147" as="geometry" />
        </mxCell>
        <mxCell id="PtKEEvkuK-J1Ukp3apgT-21" value="profile: Profile&amp;nbsp;" style="text;html=1;strokeColor=none;fillColor=none;align=left;verticalAlign=top;spacingLeft=4;spacingRight=4;whiteSpace=wrap;overflow=hidden;rotatable=0;points=[[0,0.5],[1,0.5]];portConstraint=eastwest;labelBackgroundColor=none;rounded=1;" vertex="1" parent="PtKEEvkuK-J1Ukp3apgT-20">
          <mxGeometry y="26" width="230" height="26" as="geometry" />
        </mxCell>
        <mxCell id="PtKEEvkuK-J1Ukp3apgT-22" value="personalInfo: PrivateInfo" style="text;html=1;strokeColor=none;fillColor=none;align=left;verticalAlign=top;spacingLeft=4;spacingRight=4;whiteSpace=wrap;overflow=hidden;rotatable=0;points=[[0,0.5],[1,0.5]];portConstraint=eastwest;labelBackgroundColor=none;rounded=1;" vertex="1" parent="PtKEEvkuK-J1Ukp3apgT-20">
          <mxGeometry y="52" width="230" height="26" as="geometry" />
        </mxCell>
        <mxCell id="PtKEEvkuK-J1Ukp3apgT-23" value="posts: GeneralPost" style="text;html=1;strokeColor=none;fillColor=none;align=left;verticalAlign=top;spacingLeft=4;spacingRight=4;whiteSpace=wrap;overflow=hidden;rotatable=0;points=[[0,0.5],[1,0.5]];portConstraint=eastwest;labelBackgroundColor=none;rounded=1;" vertex="1" parent="PtKEEvkuK-J1Ukp3apgT-20">
          <mxGeometry y="78" width="230" height="26" as="geometry" />
        </mxCell>
        <mxCell id="PtKEEvkuK-J1Ukp3apgT-24" value="" style="line;html=1;strokeWidth=1;fillColor=none;align=left;verticalAlign=middle;spacingTop=-1;spacingLeft=3;spacingRight=3;rotatable=0;labelPosition=right;points=[];portConstraint=eastwest;labelBackgroundColor=none;rounded=1;" vertex="1" parent="PtKEEvkuK-J1Ukp3apgT-20">
          <mxGeometry y="104" width="230" height="8" as="geometry" />
        </mxCell>
        <mxCell id="PtKEEvkuK-J1Ukp3apgT-25" value="+ CreatePost(GeneralPost): GeneralPost" style="text;html=1;strokeColor=none;fillColor=none;align=left;verticalAlign=top;spacingLeft=4;spacingRight=4;whiteSpace=wrap;overflow=hidden;rotatable=0;points=[[0,0.5],[1,0.5]];portConstraint=eastwest;labelBackgroundColor=none;rounded=1;" vertex="1" parent="PtKEEvkuK-J1Ukp3apgT-20">
          <mxGeometry y="112" width="230" height="26" as="geometry" />
        </mxCell>
        <mxCell id="PtKEEvkuK-J1Ukp3apgT-50" value="Profile" style="swimlane;html=1;fontStyle=1;align=center;verticalAlign=top;childLayout=stackLayout;horizontal=1;startSize=26;horizontalStack=0;resizeParent=1;resizeLast=0;collapsible=1;marginBottom=0;swimlaneFillColor=#ffffff;rounded=1;shadow=0;comic=0;labelBackgroundColor=none;strokeWidth=1;fillColor=none;fontFamily=Verdana;fontSize=12;" vertex="1" parent="1">
          <mxGeometry x="620" y="-370" width="230" height="230" as="geometry" />
        </mxCell>
        <mxCell id="PtKEEvkuK-J1Ukp3apgT-51" value="profileName: char[255]&amp;nbsp;" style="text;html=1;strokeColor=none;fillColor=none;align=left;verticalAlign=top;spacingLeft=4;spacingRight=4;whiteSpace=wrap;overflow=hidden;rotatable=0;points=[[0,0.5],[1,0.5]];portConstraint=eastwest;labelBackgroundColor=none;rounded=1;" vertex="1" parent="PtKEEvkuK-J1Ukp3apgT-50">
          <mxGeometry y="26" width="230" height="30" as="geometry" />
        </mxCell>
        <mxCell id="PtKEEvkuK-J1Ukp3apgT-52" value="avatar: Image" style="text;html=1;strokeColor=none;fillColor=none;align=left;verticalAlign=top;spacingLeft=4;spacingRight=4;whiteSpace=wrap;overflow=hidden;rotatable=0;points=[[0,0.5],[1,0.5]];portConstraint=eastwest;labelBackgroundColor=none;rounded=1;" vertex="1" parent="PtKEEvkuK-J1Ukp3apgT-50">
          <mxGeometry y="56" width="230" height="30" as="geometry" />
        </mxCell>
        <mxCell id="PtKEEvkuK-J1Ukp3apgT-67" value="publicInfo: PublicInfo" style="text;html=1;strokeColor=none;fillColor=none;align=left;verticalAlign=top;spacingLeft=4;spacingRight=4;whiteSpace=wrap;overflow=hidden;rotatable=0;points=[[0,0.5],[1,0.5]];portConstraint=eastwest;labelBackgroundColor=none;rounded=1;" vertex="1" parent="PtKEEvkuK-J1Ukp3apgT-50">
          <mxGeometry y="86" width="230" height="30" as="geometry" />
        </mxCell>
        <mxCell id="PtKEEvkuK-J1Ukp3apgT-54" value="" style="line;html=1;strokeWidth=1;fillColor=none;align=left;verticalAlign=middle;spacingTop=-1;spacingLeft=3;spacingRight=3;rotatable=0;labelPosition=right;points=[];portConstraint=eastwest;labelBackgroundColor=none;rounded=1;" vertex="1" parent="PtKEEvkuK-J1Ukp3apgT-50">
          <mxGeometry y="116" width="230" height="8" as="geometry" />
        </mxCell>
        <mxCell id="PtKEEvkuK-J1Ukp3apgT-55" value="+ ChangeName(char[255]): void" style="text;html=1;strokeColor=none;fillColor=none;align=left;verticalAlign=top;spacingLeft=4;spacingRight=4;whiteSpace=wrap;overflow=hidden;rotatable=0;points=[[0,0.5],[1,0.5]];portConstraint=eastwest;labelBackgroundColor=none;rounded=1;" vertex="1" parent="PtKEEvkuK-J1Ukp3apgT-50">
          <mxGeometry y="124" width="230" height="30" as="geometry" />
        </mxCell>
        <mxCell id="PtKEEvkuK-J1Ukp3apgT-56" value="+ ChangeAvatar(imagae): void&amp;nbsp;" style="text;html=1;strokeColor=none;fillColor=none;align=left;verticalAlign=top;spacingLeft=4;spacingRight=4;whiteSpace=wrap;overflow=hidden;rotatable=0;points=[[0,0.5],[1,0.5]];portConstraint=eastwest;labelBackgroundColor=none;rounded=1;" vertex="1" parent="PtKEEvkuK-J1Ukp3apgT-50">
          <mxGeometry y="154" width="230" height="30" as="geometry" />
        </mxCell>
        <mxCell id="PtKEEvkuK-J1Ukp3apgT-93" value="+ ChangeInfo(PrivateInfo): void&amp;nbsp;" style="text;html=1;strokeColor=none;fillColor=none;align=left;verticalAlign=top;spacingLeft=4;spacingRight=4;whiteSpace=wrap;overflow=hidden;rotatable=0;points=[[0,0.5],[1,0.5]];portConstraint=eastwest;labelBackgroundColor=none;rounded=1;" vertex="1" parent="PtKEEvkuK-J1Ukp3apgT-50">
          <mxGeometry y="184" width="230" height="30" as="geometry" />
        </mxCell>
        <mxCell id="PtKEEvkuK-J1Ukp3apgT-68" style="edgeStyle=orthogonalEdgeStyle;rounded=1;orthogonalLoop=1;jettySize=auto;html=1;entryX=-0.009;entryY=0.029;entryDx=0;entryDy=0;entryPerimeter=0;" edge="1" parent="1" source="78961159f06e98e8-17" target="78961159f06e98e8-30">
          <mxGeometry relative="1" as="geometry" />
        </mxCell>
        <mxCell id="PtKEEvkuK-J1Ukp3apgT-71" value="Adminstrators" style="swimlane;html=1;fontStyle=1;align=center;verticalAlign=top;childLayout=stackLayout;horizontal=1;startSize=26;horizontalStack=0;resizeParent=1;resizeLast=0;collapsible=1;marginBottom=0;swimlaneFillColor=#ffffff;rounded=1;shadow=0;comic=0;labelBackgroundColor=none;strokeWidth=1;fillColor=none;fontFamily=Verdana;fontSize=12;" vertex="1" parent="1">
          <mxGeometry x="40" y="-170" width="230" height="190" as="geometry" />
        </mxCell>
        <mxCell id="PtKEEvkuK-J1Ukp3apgT-72" value="_ID_admin: int" style="text;html=1;strokeColor=none;fillColor=none;align=left;verticalAlign=top;spacingLeft=4;spacingRight=4;whiteSpace=wrap;overflow=hidden;rotatable=0;points=[[0,0.5],[1,0.5]];portConstraint=eastwest;labelBackgroundColor=none;rounded=1;" vertex="1" parent="PtKEEvkuK-J1Ukp3apgT-71">
          <mxGeometry y="26" width="230" height="30" as="geometry" />
        </mxCell>
        <mxCell id="PtKEEvkuK-J1Ukp3apgT-73" value="accessPrivilegeLevel: AccessPrivilege" style="text;html=1;strokeColor=none;fillColor=none;align=left;verticalAlign=top;spacingLeft=4;spacingRight=4;whiteSpace=wrap;overflow=hidden;rotatable=0;points=[[0,0.5],[1,0.5]];portConstraint=eastwest;labelBackgroundColor=none;rounded=1;" vertex="1" parent="PtKEEvkuK-J1Ukp3apgT-71">
          <mxGeometry y="56" width="230" height="30" as="geometry" />
        </mxCell>
        <mxCell id="PtKEEvkuK-J1Ukp3apgT-84" value="personalInfo: PrivateInfo" style="text;html=1;strokeColor=none;fillColor=none;align=left;verticalAlign=top;spacingLeft=4;spacingRight=4;whiteSpace=wrap;overflow=hidden;rotatable=0;points=[[0,0.5],[1,0.5]];portConstraint=eastwest;labelBackgroundColor=none;rounded=1;" vertex="1" parent="PtKEEvkuK-J1Ukp3apgT-71">
          <mxGeometry y="86" width="230" height="30" as="geometry" />
        </mxCell>
        <mxCell id="PtKEEvkuK-J1Ukp3apgT-75" value="" style="line;html=1;strokeWidth=1;fillColor=none;align=left;verticalAlign=middle;spacingTop=-1;spacingLeft=3;spacingRight=3;rotatable=0;labelPosition=right;points=[];portConstraint=eastwest;labelBackgroundColor=none;rounded=1;" vertex="1" parent="PtKEEvkuK-J1Ukp3apgT-71">
          <mxGeometry y="116" width="230" height="8" as="geometry" />
        </mxCell>
        <mxCell id="PtKEEvkuK-J1Ukp3apgT-78" value="+ DeletePost(GeneralPost): void" style="text;html=1;strokeColor=none;fillColor=none;align=left;verticalAlign=top;spacingLeft=4;spacingRight=4;whiteSpace=wrap;overflow=hidden;rotatable=0;points=[[0,0.5],[1,0.5]];portConstraint=eastwest;labelBackgroundColor=none;rounded=1;" vertex="1" parent="PtKEEvkuK-J1Ukp3apgT-71">
          <mxGeometry y="124" width="230" height="30" as="geometry" />
        </mxCell>
        <mxCell id="PtKEEvkuK-J1Ukp3apgT-79" value="+ Ban(User): void&amp;nbsp;" style="text;html=1;strokeColor=none;fillColor=none;align=left;verticalAlign=top;spacingLeft=4;spacingRight=4;whiteSpace=wrap;overflow=hidden;rotatable=0;points=[[0,0.5],[1,0.5]];portConstraint=eastwest;labelBackgroundColor=none;rounded=1;" vertex="1" parent="PtKEEvkuK-J1Ukp3apgT-71">
          <mxGeometry y="154" width="230" height="30" as="geometry" />
        </mxCell>
        <mxCell id="PtKEEvkuK-J1Ukp3apgT-82" style="edgeStyle=orthogonalEdgeStyle;rounded=1;orthogonalLoop=1;jettySize=auto;html=1;entryX=0.5;entryY=0;entryDx=0;entryDy=0;" edge="1" parent="1" source="PtKEEvkuK-J1Ukp3apgT-14" target="PtKEEvkuK-J1Ukp3apgT-71">
          <mxGeometry relative="1" as="geometry" />
        </mxCell>
        <mxCell id="PtKEEvkuK-J1Ukp3apgT-86" value="Contributor" style="swimlane;html=1;fontStyle=1;align=center;verticalAlign=top;childLayout=stackLayout;horizontal=1;startSize=26;horizontalStack=0;resizeParent=1;resizeLast=0;collapsible=1;marginBottom=0;swimlaneFillColor=#ffffff;rounded=1;shadow=0;comic=0;labelBackgroundColor=none;strokeWidth=1;fillColor=none;fontFamily=Verdana;fontSize=12;" vertex="1" parent="1">
          <mxGeometry x="320" y="203" width="230" height="117" as="geometry" />
        </mxCell>
        <mxCell id="PtKEEvkuK-J1Ukp3apgT-88" value="accessPrivilegeLevel: int" style="text;html=1;strokeColor=none;fillColor=none;align=left;verticalAlign=top;spacingLeft=4;spacingRight=4;whiteSpace=wrap;overflow=hidden;rotatable=0;points=[[0,0.5],[1,0.5]];portConstraint=eastwest;labelBackgroundColor=none;rounded=1;" vertex="1" parent="PtKEEvkuK-J1Ukp3apgT-86">
          <mxGeometry y="26" width="230" height="26" as="geometry" />
        </mxCell>
        <mxCell id="PtKEEvkuK-J1Ukp3apgT-89" value="reputation: float" style="text;html=1;strokeColor=none;fillColor=none;align=left;verticalAlign=top;spacingLeft=4;spacingRight=4;whiteSpace=wrap;overflow=hidden;rotatable=0;points=[[0,0.5],[1,0.5]];portConstraint=eastwest;labelBackgroundColor=none;rounded=1;" vertex="1" parent="PtKEEvkuK-J1Ukp3apgT-86">
          <mxGeometry y="52" width="230" height="26" as="geometry" />
        </mxCell>
        <mxCell id="PtKEEvkuK-J1Ukp3apgT-90" value="" style="line;html=1;strokeWidth=1;fillColor=none;align=left;verticalAlign=middle;spacingTop=-1;spacingLeft=3;spacingRight=3;rotatable=0;labelPosition=right;points=[];portConstraint=eastwest;labelBackgroundColor=none;rounded=1;" vertex="1" parent="PtKEEvkuK-J1Ukp3apgT-86">
          <mxGeometry y="78" width="230" height="8" as="geometry" />
        </mxCell>
        <mxCell id="PtKEEvkuK-J1Ukp3apgT-91" value="+ CreateRecipe(): Recipe" style="text;html=1;strokeColor=none;fillColor=none;align=left;verticalAlign=top;spacingLeft=4;spacingRight=4;whiteSpace=wrap;overflow=hidden;rotatable=0;points=[[0,0.5],[1,0.5]];portConstraint=eastwest;labelBackgroundColor=none;rounded=1;" vertex="1" parent="PtKEEvkuK-J1Ukp3apgT-86">
          <mxGeometry y="86" width="230" height="26" as="geometry" />
        </mxCell>
        <mxCell id="PtKEEvkuK-J1Ukp3apgT-115" style="edgeStyle=orthogonalEdgeStyle;rounded=1;orthogonalLoop=1;jettySize=auto;html=1;entryX=0;entryY=0;entryDx=0;entryDy=0;" edge="1" parent="1" source="PtKEEvkuK-J1Ukp3apgT-94" target="PtKEEvkuK-J1Ukp3apgT-105">
          <mxGeometry relative="1" as="geometry" />
        </mxCell>
        <mxCell id="PtKEEvkuK-J1Ukp3apgT-94" value="PublicInfo" style="swimlane;html=1;fontStyle=1;align=center;verticalAlign=top;childLayout=stackLayout;horizontal=1;startSize=26;horizontalStack=0;resizeParent=1;resizeLast=0;collapsible=1;marginBottom=0;swimlaneFillColor=#ffffff;rounded=1;shadow=0;comic=0;labelBackgroundColor=none;strokeWidth=1;fillColor=none;fontFamily=Verdana;fontSize=12;" vertex="1" parent="1">
          <mxGeometry x="900" y="-370" width="230" height="290" as="geometry" />
        </mxCell>
        <mxCell id="PtKEEvkuK-J1Ukp3apgT-95" value="name: char[255]&amp;nbsp;" style="text;html=1;strokeColor=none;fillColor=none;align=left;verticalAlign=top;spacingLeft=4;spacingRight=4;whiteSpace=wrap;overflow=hidden;rotatable=0;points=[[0,0.5],[1,0.5]];portConstraint=eastwest;labelBackgroundColor=none;rounded=1;" vertex="1" parent="PtKEEvkuK-J1Ukp3apgT-94">
          <mxGeometry y="26" width="230" height="30" as="geometry" />
        </mxCell>
        <mxCell id="PtKEEvkuK-J1Ukp3apgT-96" value="age: Image" style="text;html=1;strokeColor=none;fillColor=none;align=left;verticalAlign=top;spacingLeft=4;spacingRight=4;whiteSpace=wrap;overflow=hidden;rotatable=0;points=[[0,0.5],[1,0.5]];portConstraint=eastwest;labelBackgroundColor=none;rounded=1;" vertex="1" parent="PtKEEvkuK-J1Ukp3apgT-94">
          <mxGeometry y="56" width="230" height="30" as="geometry" />
        </mxCell>
        <mxCell id="PtKEEvkuK-J1Ukp3apgT-97" value="likes: PublicInfo" style="text;html=1;strokeColor=none;fillColor=none;align=left;verticalAlign=top;spacingLeft=4;spacingRight=4;whiteSpace=wrap;overflow=hidden;rotatable=0;points=[[0,0.5],[1,0.5]];portConstraint=eastwest;labelBackgroundColor=none;rounded=1;" vertex="1" parent="PtKEEvkuK-J1Ukp3apgT-94">
          <mxGeometry y="86" width="230" height="30" as="geometry" />
        </mxCell>
        <mxCell id="PtKEEvkuK-J1Ukp3apgT-103" value="socialMedia: Links" style="text;html=1;strokeColor=none;fillColor=none;align=left;verticalAlign=top;spacingLeft=4;spacingRight=4;whiteSpace=wrap;overflow=hidden;rotatable=0;points=[[0,0.5],[1,0.5]];portConstraint=eastwest;labelBackgroundColor=none;rounded=1;" vertex="1" parent="PtKEEvkuK-J1Ukp3apgT-94">
          <mxGeometry y="116" width="230" height="30" as="geometry" />
        </mxCell>
        <mxCell id="PtKEEvkuK-J1Ukp3apgT-98" value="" style="line;html=1;strokeWidth=1;fillColor=none;align=left;verticalAlign=middle;spacingTop=-1;spacingLeft=3;spacingRight=3;rotatable=0;labelPosition=right;points=[];portConstraint=eastwest;labelBackgroundColor=none;rounded=1;" vertex="1" parent="PtKEEvkuK-J1Ukp3apgT-94">
          <mxGeometry y="146" width="230" height="8" as="geometry" />
        </mxCell>
        <mxCell id="PtKEEvkuK-J1Ukp3apgT-99" value="+ ChangeName(char[255]): void" style="text;html=1;strokeColor=none;fillColor=none;align=left;verticalAlign=top;spacingLeft=4;spacingRight=4;whiteSpace=wrap;overflow=hidden;rotatable=0;points=[[0,0.5],[1,0.5]];portConstraint=eastwest;labelBackgroundColor=none;rounded=1;" vertex="1" parent="PtKEEvkuK-J1Ukp3apgT-94">
          <mxGeometry y="154" width="230" height="30" as="geometry" />
        </mxCell>
        <mxCell id="PtKEEvkuK-J1Ukp3apgT-100" value="+ ChangeAge(int): void&amp;nbsp;" style="text;html=1;strokeColor=none;fillColor=none;align=left;verticalAlign=top;spacingLeft=4;spacingRight=4;whiteSpace=wrap;overflow=hidden;rotatable=0;points=[[0,0.5],[1,0.5]];portConstraint=eastwest;labelBackgroundColor=none;rounded=1;" vertex="1" parent="PtKEEvkuK-J1Ukp3apgT-94">
          <mxGeometry y="184" width="230" height="30" as="geometry" />
        </mxCell>
        <mxCell id="PtKEEvkuK-J1Ukp3apgT-101" value="+ ChangeLikes(Array of char[255]): void&amp;nbsp;" style="text;html=1;strokeColor=none;fillColor=none;align=left;verticalAlign=top;spacingLeft=4;spacingRight=4;whiteSpace=wrap;overflow=hidden;rotatable=0;points=[[0,0.5],[1,0.5]];portConstraint=eastwest;labelBackgroundColor=none;rounded=1;" vertex="1" parent="PtKEEvkuK-J1Ukp3apgT-94">
          <mxGeometry y="214" width="230" height="30" as="geometry" />
        </mxCell>
        <mxCell id="PtKEEvkuK-J1Ukp3apgT-104" value="+ EmbedSoicalLink(Links): void&amp;nbsp;" style="text;html=1;strokeColor=none;fillColor=none;align=left;verticalAlign=top;spacingLeft=4;spacingRight=4;whiteSpace=wrap;overflow=hidden;rotatable=0;points=[[0,0.5],[1,0.5]];portConstraint=eastwest;labelBackgroundColor=none;rounded=1;" vertex="1" parent="PtKEEvkuK-J1Ukp3apgT-94">
          <mxGeometry y="244" width="230" height="30" as="geometry" />
        </mxCell>
        <mxCell id="PtKEEvkuK-J1Ukp3apgT-105" value="PrivateInfo" style="swimlane;html=1;fontStyle=1;align=center;verticalAlign=top;childLayout=stackLayout;horizontal=1;startSize=26;horizontalStack=0;resizeParent=1;resizeLast=0;collapsible=1;marginBottom=0;swimlaneFillColor=#ffffff;rounded=1;shadow=0;comic=0;labelBackgroundColor=none;strokeWidth=1;fillColor=none;fontFamily=Verdana;fontSize=12;" vertex="1" parent="1">
          <mxGeometry x="1250" y="-370" width="230" height="290" as="geometry" />
        </mxCell>
        <mxCell id="PtKEEvkuK-J1Ukp3apgT-106" value="email: char[255]&amp;nbsp;" style="text;html=1;strokeColor=none;fillColor=none;align=left;verticalAlign=top;spacingLeft=4;spacingRight=4;whiteSpace=wrap;overflow=hidden;rotatable=0;points=[[0,0.5],[1,0.5]];portConstraint=eastwest;labelBackgroundColor=none;rounded=1;" vertex="1" parent="PtKEEvkuK-J1Ukp3apgT-105">
          <mxGeometry y="26" width="230" height="30" as="geometry" />
        </mxCell>
        <mxCell id="PtKEEvkuK-J1Ukp3apgT-107" value="phone: char[255]" style="text;html=1;strokeColor=none;fillColor=none;align=left;verticalAlign=top;spacingLeft=4;spacingRight=4;whiteSpace=wrap;overflow=hidden;rotatable=0;points=[[0,0.5],[1,0.5]];portConstraint=eastwest;labelBackgroundColor=none;rounded=1;" vertex="1" parent="PtKEEvkuK-J1Ukp3apgT-105">
          <mxGeometry y="56" width="230" height="30" as="geometry" />
        </mxCell>
        <mxCell id="PtKEEvkuK-J1Ukp3apgT-108" value="healthStatus: HealthStatus" style="text;html=1;strokeColor=none;fillColor=none;align=left;verticalAlign=top;spacingLeft=4;spacingRight=4;whiteSpace=wrap;overflow=hidden;rotatable=0;points=[[0,0.5],[1,0.5]];portConstraint=eastwest;labelBackgroundColor=none;rounded=1;" vertex="1" parent="PtKEEvkuK-J1Ukp3apgT-105">
          <mxGeometry y="86" width="230" height="30" as="geometry" />
        </mxCell>
        <mxCell id="PtKEEvkuK-J1Ukp3apgT-109" value="Career: enum" style="text;html=1;strokeColor=none;fillColor=none;align=left;verticalAlign=top;spacingLeft=4;spacingRight=4;whiteSpace=wrap;overflow=hidden;rotatable=0;points=[[0,0.5],[1,0.5]];portConstraint=eastwest;labelBackgroundColor=none;rounded=1;" vertex="1" parent="PtKEEvkuK-J1Ukp3apgT-105">
          <mxGeometry y="116" width="230" height="30" as="geometry" />
        </mxCell>
        <mxCell id="PtKEEvkuK-J1Ukp3apgT-110" value="" style="line;html=1;strokeWidth=1;fillColor=none;align=left;verticalAlign=middle;spacingTop=-1;spacingLeft=3;spacingRight=3;rotatable=0;labelPosition=right;points=[];portConstraint=eastwest;labelBackgroundColor=none;rounded=1;" vertex="1" parent="PtKEEvkuK-J1Ukp3apgT-105">
          <mxGeometry y="146" width="230" height="8" as="geometry" />
        </mxCell>
        <mxCell id="PtKEEvkuK-J1Ukp3apgT-111" value="+ ChangeEmail(char[255]): void" style="text;html=1;strokeColor=none;fillColor=none;align=left;verticalAlign=top;spacingLeft=4;spacingRight=4;whiteSpace=wrap;overflow=hidden;rotatable=0;points=[[0,0.5],[1,0.5]];portConstraint=eastwest;labelBackgroundColor=none;rounded=1;" vertex="1" parent="PtKEEvkuK-J1Ukp3apgT-105">
          <mxGeometry y="154" width="230" height="30" as="geometry" />
        </mxCell>
        <mxCell id="PtKEEvkuK-J1Ukp3apgT-112" value="+ ChangePhone(char[255]): void&amp;nbsp;" style="text;html=1;strokeColor=none;fillColor=none;align=left;verticalAlign=top;spacingLeft=4;spacingRight=4;whiteSpace=wrap;overflow=hidden;rotatable=0;points=[[0,0.5],[1,0.5]];portConstraint=eastwest;labelBackgroundColor=none;rounded=1;" vertex="1" parent="PtKEEvkuK-J1Ukp3apgT-105">
          <mxGeometry y="184" width="230" height="30" as="geometry" />
        </mxCell>
        <mxCell id="PtKEEvkuK-J1Ukp3apgT-113" value="+ ChangeCareer(enum): void&amp;nbsp;" style="text;html=1;strokeColor=none;fillColor=none;align=left;verticalAlign=top;spacingLeft=4;spacingRight=4;whiteSpace=wrap;overflow=hidden;rotatable=0;points=[[0,0.5],[1,0.5]];portConstraint=eastwest;labelBackgroundColor=none;rounded=1;" vertex="1" parent="PtKEEvkuK-J1Ukp3apgT-105">
          <mxGeometry y="214" width="230" height="30" as="geometry" />
        </mxCell>
        <mxCell id="PtKEEvkuK-J1Ukp3apgT-114" value="+ viewStatus(): void" style="text;html=1;strokeColor=none;fillColor=none;align=left;verticalAlign=top;spacingLeft=4;spacingRight=4;whiteSpace=wrap;overflow=hidden;rotatable=0;points=[[0,0.5],[1,0.5]];portConstraint=eastwest;labelBackgroundColor=none;rounded=1;" vertex="1" parent="PtKEEvkuK-J1Ukp3apgT-105">
          <mxGeometry y="244" width="230" height="30" as="geometry" />
        </mxCell>
        <mxCell id="PtKEEvkuK-J1Ukp3apgT-128" value="Comment" style="swimlane;html=1;fontStyle=1;align=center;verticalAlign=top;childLayout=stackLayout;horizontal=1;startSize=26;horizontalStack=0;resizeParent=1;resizeLast=0;collapsible=1;marginBottom=0;swimlaneFillColor=#ffffff;rounded=1;shadow=0;comic=0;labelBackgroundColor=none;strokeWidth=1;fontFamily=Verdana;fontSize=12;" vertex="1" parent="1">
          <mxGeometry x="1190" y="20" width="150" height="154" as="geometry" />
        </mxCell>
        <mxCell id="PtKEEvkuK-J1Ukp3apgT-142" value="_ID_comment: int" style="text;html=1;strokeColor=none;fillColor=none;align=left;verticalAlign=top;spacingLeft=4;spacingRight=4;whiteSpace=wrap;overflow=hidden;rotatable=0;points=[[0,0.5],[1,0.5]];portConstraint=eastwest;labelBackgroundColor=none;rounded=1;" vertex="1" parent="PtKEEvkuK-J1Ukp3apgT-128">
          <mxGeometry y="26" width="150" height="30" as="geometry" />
        </mxCell>
        <mxCell id="PtKEEvkuK-J1Ukp3apgT-134" value="replies: Comment" style="text;html=1;strokeColor=none;fillColor=none;align=left;verticalAlign=top;spacingLeft=4;spacingRight=4;whiteSpace=wrap;overflow=hidden;rotatable=0;points=[[0,0.5],[1,0.5]];portConstraint=eastwest;labelBackgroundColor=none;rounded=1;" vertex="1" parent="PtKEEvkuK-J1Ukp3apgT-128">
          <mxGeometry y="56" width="150" height="30" as="geometry" />
        </mxCell>
        <mxCell id="PtKEEvkuK-J1Ukp3apgT-135" value="" style="line;html=1;strokeWidth=1;fillColor=none;align=left;verticalAlign=middle;spacingTop=-1;spacingLeft=3;spacingRight=3;rotatable=0;labelPosition=right;points=[];portConstraint=eastwest;labelBackgroundColor=none;rounded=1;" vertex="1" parent="PtKEEvkuK-J1Ukp3apgT-128">
          <mxGeometry y="86" width="150" height="8" as="geometry" />
        </mxCell>
        <mxCell id="PtKEEvkuK-J1Ukp3apgT-136" value="+ EditPost(): void" style="text;html=1;strokeColor=none;fillColor=none;align=left;verticalAlign=top;spacingLeft=4;spacingRight=4;whiteSpace=wrap;overflow=hidden;rotatable=0;points=[[0,0.5],[1,0.5]];portConstraint=eastwest;labelBackgroundColor=none;rounded=1;" vertex="1" parent="PtKEEvkuK-J1Ukp3apgT-128">
          <mxGeometry y="94" width="150" height="30" as="geometry" />
        </mxCell>
        <mxCell id="PtKEEvkuK-J1Ukp3apgT-159" value="+ DisplayCommet() hmtl" style="text;html=1;strokeColor=#82b366;fillColor=#d5e8d4;align=left;verticalAlign=top;spacingLeft=4;spacingRight=4;whiteSpace=wrap;overflow=hidden;rotatable=0;points=[[0,0.5],[1,0.5]];portConstraint=eastwest;labelBackgroundColor=none;rounded=1;" vertex="1" parent="PtKEEvkuK-J1Ukp3apgT-128">
          <mxGeometry y="124" width="150" height="30" as="geometry" />
        </mxCell>
        <mxCell id="PtKEEvkuK-J1Ukp3apgT-143" style="edgeStyle=orthogonalEdgeStyle;rounded=1;orthogonalLoop=1;jettySize=auto;html=1;entryX=0.018;entryY=0.097;entryDx=0;entryDy=0;entryPerimeter=0;" edge="1" parent="1" source="78961159f06e98e8-49" target="PtKEEvkuK-J1Ukp3apgT-128">
          <mxGeometry relative="1" as="geometry" />
        </mxCell>
        <mxCell id="PtKEEvkuK-J1Ukp3apgT-145" value="Post" style="swimlane;html=1;fontStyle=1;align=center;verticalAlign=top;childLayout=stackLayout;horizontal=1;startSize=26;horizontalStack=0;resizeParent=1;resizeLast=0;collapsible=1;marginBottom=0;swimlaneFillColor=#ffffff;rounded=1;shadow=0;comic=0;labelBackgroundColor=none;strokeWidth=1;fontFamily=Verdana;fontSize=12;" vertex="1" parent="1">
          <mxGeometry x="1190" y="180" width="180" height="184" as="geometry" />
        </mxCell>
        <mxCell id="PtKEEvkuK-J1Ukp3apgT-146" value="_ID_post: int" style="text;html=1;strokeColor=none;fillColor=none;align=left;verticalAlign=top;spacingLeft=4;spacingRight=4;whiteSpace=wrap;overflow=hidden;rotatable=0;points=[[0,0.5],[1,0.5]];portConstraint=eastwest;labelBackgroundColor=none;rounded=1;" vertex="1" parent="PtKEEvkuK-J1Ukp3apgT-145">
          <mxGeometry y="26" width="180" height="30" as="geometry" />
        </mxCell>
        <mxCell id="PtKEEvkuK-J1Ukp3apgT-147" value="comments: Array of Comment" style="text;html=1;strokeColor=none;fillColor=none;align=left;verticalAlign=top;spacingLeft=4;spacingRight=4;whiteSpace=wrap;overflow=hidden;rotatable=0;points=[[0,0.5],[1,0.5]];portConstraint=eastwest;labelBackgroundColor=none;rounded=1;" vertex="1" parent="PtKEEvkuK-J1Ukp3apgT-145">
          <mxGeometry y="56" width="180" height="30" as="geometry" />
        </mxCell>
        <mxCell id="PtKEEvkuK-J1Ukp3apgT-160" value="contents: plainText" style="text;html=1;strokeColor=none;fillColor=none;align=left;verticalAlign=top;spacingLeft=4;spacingRight=4;whiteSpace=wrap;overflow=hidden;rotatable=0;points=[[0,0.5],[1,0.5]];portConstraint=eastwest;labelBackgroundColor=none;rounded=1;" vertex="1" parent="PtKEEvkuK-J1Ukp3apgT-145">
          <mxGeometry y="86" width="180" height="30" as="geometry" />
        </mxCell>
        <mxCell id="PtKEEvkuK-J1Ukp3apgT-167" value="" style="line;html=1;strokeWidth=1;fillColor=none;align=left;verticalAlign=middle;spacingTop=-1;spacingLeft=3;spacingRight=3;rotatable=0;labelPosition=right;points=[];portConstraint=eastwest;labelBackgroundColor=none;rounded=1;" vertex="1" parent="PtKEEvkuK-J1Ukp3apgT-145">
          <mxGeometry y="116" width="180" height="8" as="geometry" />
        </mxCell>
        <mxCell id="PtKEEvkuK-J1Ukp3apgT-168" value="DisplayPost(): html" style="text;html=1;strokeColor=#82b366;fillColor=#d5e8d4;align=left;verticalAlign=top;spacingLeft=4;spacingRight=4;whiteSpace=wrap;overflow=hidden;rotatable=0;points=[[0,0.5],[1,0.5]];portConstraint=eastwest;labelBackgroundColor=none;rounded=1;" vertex="1" parent="PtKEEvkuK-J1Ukp3apgT-145">
          <mxGeometry y="124" width="180" height="30" as="geometry" />
        </mxCell>
        <mxCell id="PtKEEvkuK-J1Ukp3apgT-172" value="EditPost(): html" style="text;html=1;strokeColor=none;fillColor=none;align=left;verticalAlign=top;spacingLeft=4;spacingRight=4;whiteSpace=wrap;overflow=hidden;rotatable=0;points=[[0,0.5],[1,0.5]];portConstraint=eastwest;labelBackgroundColor=none;rounded=1;" vertex="1" parent="PtKEEvkuK-J1Ukp3apgT-145">
          <mxGeometry y="154" width="180" height="30" as="geometry" />
        </mxCell>
        <mxCell id="PtKEEvkuK-J1Ukp3apgT-153" style="edgeStyle=orthogonalEdgeStyle;rounded=1;orthogonalLoop=1;jettySize=auto;html=1;entryX=0;entryY=0.5;entryDx=0;entryDy=0;" edge="1" parent="1" source="78961159f06e98e8-49" target="PtKEEvkuK-J1Ukp3apgT-146">
          <mxGeometry relative="1" as="geometry" />
        </mxCell>
        <mxCell id="PtKEEvkuK-J1Ukp3apgT-154" value="Article" style="swimlane;html=1;fontStyle=1;align=center;verticalAlign=top;childLayout=stackLayout;horizontal=1;startSize=26;horizontalStack=0;resizeParent=1;resizeLast=0;collapsible=1;marginBottom=0;swimlaneFillColor=#ffffff;rounded=1;shadow=0;comic=0;labelBackgroundColor=none;strokeWidth=1;fontFamily=Verdana;fontSize=12;" vertex="1" parent="1">
          <mxGeometry x="1190" y="380" width="150" height="154" as="geometry" />
        </mxCell>
        <mxCell id="PtKEEvkuK-J1Ukp3apgT-155" value="_ID_comment: int" style="text;html=1;strokeColor=none;fillColor=none;align=left;verticalAlign=top;spacingLeft=4;spacingRight=4;whiteSpace=wrap;overflow=hidden;rotatable=0;points=[[0,0.5],[1,0.5]];portConstraint=eastwest;labelBackgroundColor=none;rounded=1;" vertex="1" parent="PtKEEvkuK-J1Ukp3apgT-154">
          <mxGeometry y="26" width="150" height="30" as="geometry" />
        </mxCell>
        <mxCell id="PtKEEvkuK-J1Ukp3apgT-156" value="replies: Comment" style="text;html=1;strokeColor=none;fillColor=none;align=left;verticalAlign=top;spacingLeft=4;spacingRight=4;whiteSpace=wrap;overflow=hidden;rotatable=0;points=[[0,0.5],[1,0.5]];portConstraint=eastwest;labelBackgroundColor=none;rounded=1;" vertex="1" parent="PtKEEvkuK-J1Ukp3apgT-154">
          <mxGeometry y="56" width="150" height="30" as="geometry" />
        </mxCell>
        <mxCell id="PtKEEvkuK-J1Ukp3apgT-157" value="" style="line;html=1;strokeWidth=1;fillColor=none;align=left;verticalAlign=middle;spacingTop=-1;spacingLeft=3;spacingRight=3;rotatable=0;labelPosition=right;points=[];portConstraint=eastwest;labelBackgroundColor=none;rounded=1;" vertex="1" parent="PtKEEvkuK-J1Ukp3apgT-154">
          <mxGeometry y="86" width="150" height="8" as="geometry" />
        </mxCell>
        <mxCell id="PtKEEvkuK-J1Ukp3apgT-158" value="+ EditPost(): html" style="text;html=1;strokeColor=none;fillColor=none;align=left;verticalAlign=top;spacingLeft=4;spacingRight=4;whiteSpace=wrap;overflow=hidden;rotatable=0;points=[[0,0.5],[1,0.5]];portConstraint=eastwest;labelBackgroundColor=none;rounded=1;" vertex="1" parent="PtKEEvkuK-J1Ukp3apgT-154">
          <mxGeometry y="94" width="150" height="30" as="geometry" />
        </mxCell>
        <mxCell id="PtKEEvkuK-J1Ukp3apgT-171" value="+ DisplayArticle(): html" style="text;html=1;strokeColor=#82b366;fillColor=#d5e8d4;align=left;verticalAlign=top;spacingLeft=4;spacingRight=4;whiteSpace=wrap;overflow=hidden;rotatable=0;points=[[0,0.5],[1,0.5]];portConstraint=eastwest;labelBackgroundColor=none;rounded=1;" vertex="1" parent="PtKEEvkuK-J1Ukp3apgT-154">
          <mxGeometry y="124" width="150" height="30" as="geometry" />
        </mxCell>
        <mxCell id="PtKEEvkuK-J1Ukp3apgT-163" style="edgeStyle=orthogonalEdgeStyle;rounded=1;orthogonalLoop=1;jettySize=auto;html=1;exitX=1;exitY=0.5;exitDx=0;exitDy=0;entryX=-0.003;entryY=0.13;entryDx=0;entryDy=0;entryPerimeter=0;" edge="1" parent="1" source="78961159f06e98e8-49" target="PtKEEvkuK-J1Ukp3apgT-154">
          <mxGeometry relative="1" as="geometry" />
        </mxCell>
        <mxCell id="PtKEEvkuK-J1Ukp3apgT-173" value="&amp;lt;IDisplay&amp;gt;" style="swimlane;html=1;fontStyle=1;align=center;verticalAlign=top;childLayout=stackLayout;horizontal=1;startSize=26;horizontalStack=0;resizeParent=1;resizeLast=0;collapsible=1;marginBottom=0;swimlaneFillColor=#ffffff;rounded=1;shadow=0;comic=0;labelBackgroundColor=none;strokeWidth=1;fontFamily=Verdana;fontSize=12;fillColor=#d5e8d4;strokeColor=#82b366;" vertex="1" parent="1">
          <mxGeometry x="890" y="420" width="150" height="154" as="geometry" />
        </mxCell>
        <mxCell id="PtKEEvkuK-J1Ukp3apgT-179" value="Dish Instruction" style="swimlane;html=1;fontStyle=1;align=center;verticalAlign=top;childLayout=stackLayout;horizontal=1;startSize=26;horizontalStack=0;resizeParent=1;resizeLast=0;collapsible=1;marginBottom=0;swimlaneFillColor=#ffffff;rounded=1;shadow=0;comic=0;labelBackgroundColor=none;strokeWidth=1;fillColor=none;fontFamily=Verdana;fontSize=12;" vertex="1" parent="1">
          <mxGeometry x="810" y="-880" width="230" height="250" as="geometry" />
        </mxCell>
        <mxCell id="PtKEEvkuK-J1Ukp3apgT-180" value="name: char[255]&amp;nbsp;" style="text;html=1;strokeColor=none;fillColor=none;align=left;verticalAlign=top;spacingLeft=4;spacingRight=4;whiteSpace=wrap;overflow=hidden;rotatable=0;points=[[0,0.5],[1,0.5]];portConstraint=eastwest;labelBackgroundColor=none;rounded=1;" vertex="1" parent="PtKEEvkuK-J1Ukp3apgT-179">
          <mxGeometry y="26" width="230" height="30" as="geometry" />
        </mxCell>
        <mxCell id="PtKEEvkuK-J1Ukp3apgT-181" value="description: PlainText" style="text;html=1;strokeColor=none;fillColor=none;align=left;verticalAlign=top;spacingLeft=4;spacingRight=4;whiteSpace=wrap;overflow=hidden;rotatable=0;points=[[0,0.5],[1,0.5]];portConstraint=eastwest;labelBackgroundColor=none;rounded=1;" vertex="1" parent="PtKEEvkuK-J1Ukp3apgT-179">
          <mxGeometry y="56" width="230" height="30" as="geometry" />
        </mxCell>
        <mxCell id="PtKEEvkuK-J1Ukp3apgT-183" value="recommendFor: Career" style="text;html=1;strokeColor=none;fillColor=none;align=left;verticalAlign=top;spacingLeft=4;spacingRight=4;whiteSpace=wrap;overflow=hidden;rotatable=0;points=[[0,0.5],[1,0.5]];portConstraint=eastwest;labelBackgroundColor=none;rounded=1;" vertex="1" parent="PtKEEvkuK-J1Ukp3apgT-179">
          <mxGeometry y="86" width="230" height="30" as="geometry" />
        </mxCell>
        <mxCell id="PtKEEvkuK-J1Ukp3apgT-190" value="recipe: Recipe" style="text;html=1;strokeColor=none;fillColor=none;align=left;verticalAlign=top;spacingLeft=4;spacingRight=4;whiteSpace=wrap;overflow=hidden;rotatable=0;points=[[0,0.5],[1,0.5]];portConstraint=eastwest;labelBackgroundColor=none;rounded=1;" vertex="1" parent="PtKEEvkuK-J1Ukp3apgT-179">
          <mxGeometry y="116" width="230" height="30" as="geometry" />
        </mxCell>
        <mxCell id="PtKEEvkuK-J1Ukp3apgT-184" value="" style="line;html=1;strokeWidth=1;fillColor=none;align=left;verticalAlign=middle;spacingTop=-1;spacingLeft=3;spacingRight=3;rotatable=0;labelPosition=right;points=[];portConstraint=eastwest;labelBackgroundColor=none;rounded=1;" vertex="1" parent="PtKEEvkuK-J1Ukp3apgT-179">
          <mxGeometry y="146" width="230" height="8" as="geometry" />
        </mxCell>
        <mxCell id="PtKEEvkuK-J1Ukp3apgT-189" value="+ DeleteDish(): void" style="text;html=1;strokeColor=none;fillColor=none;align=left;verticalAlign=top;spacingLeft=4;spacingRight=4;whiteSpace=wrap;overflow=hidden;rotatable=0;points=[[0,0.5],[1,0.5]];portConstraint=eastwest;labelBackgroundColor=none;rounded=1;" vertex="1" parent="PtKEEvkuK-J1Ukp3apgT-179">
          <mxGeometry y="154" width="230" height="30" as="geometry" />
        </mxCell>
        <mxCell id="PtKEEvkuK-J1Ukp3apgT-192" value="+ UpdateDishInfo(): void" style="text;html=1;strokeColor=none;fillColor=none;align=left;verticalAlign=top;spacingLeft=4;spacingRight=4;whiteSpace=wrap;overflow=hidden;rotatable=0;points=[[0,0.5],[1,0.5]];portConstraint=eastwest;labelBackgroundColor=none;rounded=1;" vertex="1" parent="PtKEEvkuK-J1Ukp3apgT-179">
          <mxGeometry y="184" width="230" height="30" as="geometry" />
        </mxCell>
        <mxCell id="PtKEEvkuK-J1Ukp3apgT-213" value="+ AddNewRecipe(): void" style="text;html=1;strokeColor=none;fillColor=none;align=left;verticalAlign=top;spacingLeft=4;spacingRight=4;whiteSpace=wrap;overflow=hidden;rotatable=0;points=[[0,0.5],[1,0.5]];portConstraint=eastwest;labelBackgroundColor=none;rounded=1;" vertex="1" parent="PtKEEvkuK-J1Ukp3apgT-179">
          <mxGeometry y="214" width="230" height="30" as="geometry" />
        </mxCell>
        <mxCell id="PtKEEvkuK-J1Ukp3apgT-203" value="Recipe" style="swimlane;html=1;fontStyle=1;align=center;verticalAlign=top;childLayout=stackLayout;horizontal=1;startSize=26;horizontalStack=0;resizeParent=1;resizeLast=0;collapsible=1;marginBottom=0;swimlaneFillColor=#ffffff;rounded=1;shadow=0;comic=0;labelBackgroundColor=none;strokeWidth=1;fillColor=none;fontFamily=Verdana;fontSize=12;" vertex="1" parent="1">
          <mxGeometry x="1060" y="-880" width="330" height="214" as="geometry" />
        </mxCell>
        <mxCell id="PtKEEvkuK-J1Ukp3apgT-204" value="_ID_recipe: int&amp;nbsp;" style="text;html=1;strokeColor=none;fillColor=none;align=left;verticalAlign=top;spacingLeft=4;spacingRight=4;whiteSpace=wrap;overflow=hidden;rotatable=0;points=[[0,0.5],[1,0.5]];portConstraint=eastwest;labelBackgroundColor=none;rounded=1;" vertex="1" parent="PtKEEvkuK-J1Ukp3apgT-203">
          <mxGeometry y="26" width="330" height="30" as="geometry" />
        </mxCell>
        <mxCell id="PtKEEvkuK-J1Ukp3apgT-205" value="name: char[255]" style="text;html=1;strokeColor=none;fillColor=none;align=left;verticalAlign=top;spacingLeft=4;spacingRight=4;whiteSpace=wrap;overflow=hidden;rotatable=0;points=[[0,0.5],[1,0.5]];portConstraint=eastwest;labelBackgroundColor=none;rounded=1;" vertex="1" parent="PtKEEvkuK-J1Ukp3apgT-203">
          <mxGeometry y="56" width="330" height="30" as="geometry" />
        </mxCell>
        <mxCell id="PtKEEvkuK-J1Ukp3apgT-207" value="ingredients: Array of Tuple&amp;lt;Ingredients, int, Unit&amp;gt;" style="text;html=1;strokeColor=none;fillColor=none;align=left;verticalAlign=top;spacingLeft=4;spacingRight=4;whiteSpace=wrap;overflow=hidden;rotatable=0;points=[[0,0.5],[1,0.5]];portConstraint=eastwest;labelBackgroundColor=none;rounded=1;" vertex="1" parent="PtKEEvkuK-J1Ukp3apgT-203">
          <mxGeometry y="86" width="330" height="30" as="geometry" />
        </mxCell>
        <mxCell id="PtKEEvkuK-J1Ukp3apgT-208" value="nutritionContents: Array of Pair&amp;lt;NutritionType, float, Unit&amp;gt;" style="text;html=1;strokeColor=none;fillColor=none;align=left;verticalAlign=top;spacingLeft=4;spacingRight=4;whiteSpace=wrap;overflow=hidden;rotatable=0;points=[[0,0.5],[1,0.5]];portConstraint=eastwest;labelBackgroundColor=none;rounded=1;" vertex="1" parent="PtKEEvkuK-J1Ukp3apgT-203">
          <mxGeometry y="116" width="330" height="30" as="geometry" />
        </mxCell>
        <mxCell id="PtKEEvkuK-J1Ukp3apgT-209" value="" style="line;html=1;strokeWidth=1;fillColor=none;align=left;verticalAlign=middle;spacingTop=-1;spacingLeft=3;spacingRight=3;rotatable=0;labelPosition=right;points=[];portConstraint=eastwest;labelBackgroundColor=none;rounded=1;" vertex="1" parent="PtKEEvkuK-J1Ukp3apgT-203">
          <mxGeometry y="146" width="330" height="8" as="geometry" />
        </mxCell>
        <mxCell id="PtKEEvkuK-J1Ukp3apgT-210" value="+ UpdateRecipe(): void" style="text;html=1;strokeColor=none;fillColor=none;align=left;verticalAlign=top;spacingLeft=4;spacingRight=4;whiteSpace=wrap;overflow=hidden;rotatable=0;points=[[0,0.5],[1,0.5]];portConstraint=eastwest;labelBackgroundColor=none;rounded=1;" vertex="1" parent="PtKEEvkuK-J1Ukp3apgT-203">
          <mxGeometry y="154" width="330" height="30" as="geometry" />
        </mxCell>
        <mxCell id="PtKEEvkuK-J1Ukp3apgT-211" value="+ DeleteRecipe(): void" style="text;html=1;strokeColor=none;fillColor=none;align=left;verticalAlign=top;spacingLeft=4;spacingRight=4;whiteSpace=wrap;overflow=hidden;rotatable=0;points=[[0,0.5],[1,0.5]];portConstraint=eastwest;labelBackgroundColor=none;rounded=1;" vertex="1" parent="PtKEEvkuK-J1Ukp3apgT-203">
          <mxGeometry y="184" width="330" height="30" as="geometry" />
        </mxCell>
        <mxCell id="PtKEEvkuK-J1Ukp3apgT-216" value="Nutrition Type" style="swimlane;html=1;fontStyle=1;align=center;verticalAlign=top;childLayout=stackLayout;horizontal=1;startSize=26;horizontalStack=0;resizeParent=1;resizeLast=0;collapsible=1;marginBottom=0;swimlaneFillColor=#ffffff;rounded=1;shadow=0;comic=0;labelBackgroundColor=none;strokeWidth=1;fillColor=#fff2cc;fontFamily=Verdana;fontSize=12;strokeColor=#d6b656;" vertex="1" parent="1">
          <mxGeometry x="810" y="-600" width="120" height="56" as="geometry" />
        </mxCell>
        <mxCell id="PtKEEvkuK-J1Ukp3apgT-217" value="Name: char[255]" style="text;html=1;strokeColor=none;fillColor=none;align=left;verticalAlign=top;spacingLeft=4;spacingRight=4;whiteSpace=wrap;overflow=hidden;rotatable=0;points=[[0,0.5],[1,0.5]];portConstraint=eastwest;labelBackgroundColor=none;rounded=1;" vertex="1" parent="PtKEEvkuK-J1Ukp3apgT-216">
          <mxGeometry y="26" width="120" height="30" as="geometry" />
        </mxCell>
        <mxCell id="PtKEEvkuK-J1Ukp3apgT-224" value="Career" style="swimlane;html=1;fontStyle=1;align=center;verticalAlign=top;childLayout=stackLayout;horizontal=1;startSize=26;horizontalStack=0;resizeParent=1;resizeLast=0;collapsible=1;marginBottom=0;swimlaneFillColor=#ffffff;rounded=1;shadow=0;comic=0;labelBackgroundColor=none;strokeWidth=1;fillColor=#fff2cc;fontFamily=Verdana;fontSize=12;strokeColor=#d6b656;" vertex="1" parent="1">
          <mxGeometry x="950" y="-600" width="120" height="56" as="geometry" />
        </mxCell>
        <mxCell id="PtKEEvkuK-J1Ukp3apgT-225" value="Name: char[255]" style="text;html=1;strokeColor=none;fillColor=none;align=left;verticalAlign=top;spacingLeft=4;spacingRight=4;whiteSpace=wrap;overflow=hidden;rotatable=0;points=[[0,0.5],[1,0.5]];portConstraint=eastwest;labelBackgroundColor=none;rounded=1;" vertex="1" parent="PtKEEvkuK-J1Ukp3apgT-224">
          <mxGeometry y="26" width="120" height="30" as="geometry" />
        </mxCell>
        <mxCell id="PtKEEvkuK-J1Ukp3apgT-226" value="AccessPrivilege" style="swimlane;html=1;fontStyle=1;align=center;verticalAlign=top;childLayout=stackLayout;horizontal=1;startSize=26;horizontalStack=0;resizeParent=1;resizeLast=0;collapsible=1;marginBottom=0;swimlaneFillColor=#ffffff;rounded=1;shadow=0;comic=0;labelBackgroundColor=none;strokeWidth=1;fillColor=#fff2cc;fontFamily=Verdana;fontSize=12;strokeColor=#d6b656;" vertex="1" parent="1">
          <mxGeometry x="1090" y="-600" width="120" height="56" as="geometry" />
        </mxCell>
        <mxCell id="PtKEEvkuK-J1Ukp3apgT-227" value="Name: char[255]" style="text;html=1;strokeColor=none;fillColor=none;align=left;verticalAlign=top;spacingLeft=4;spacingRight=4;whiteSpace=wrap;overflow=hidden;rotatable=0;points=[[0,0.5],[1,0.5]];portConstraint=eastwest;labelBackgroundColor=none;rounded=1;" vertex="1" parent="PtKEEvkuK-J1Ukp3apgT-226">
          <mxGeometry y="26" width="120" height="30" as="geometry" />
        </mxCell>
      </root>
    </mxGraphModel>
  </diagram>
</mxfile>
